<svg width="84" height="113" viewBox="0 0 84 113" fill="none" xmlns="http://www.w3.org/2000/svg">
<ellipse cx="54.2752" cy="42.0286" rx="5.4715" ry="5.4715" fill="#50545D"/>
<ellipse cx="61.4747" cy="50.3795" rx="3.45568" ry="3.45568" fill="#E5C8D6"/>
<rect x="1" y="42.3159" width="80.6326" height="61.0504" fill="#D6E6ED"/>
<circle cx="9.06326" cy="103.367" r="8.06326" fill="#D6E6ED"/>
<circle cx="25.1892" cy="103.367" r="8.06326" fill="#D6E6ED"/>
<circle cx="41.3162" cy="103.367" r="8.06326" fill="#D6E6ED"/>
<circle cx="57.4431" cy="103.367" r="8.06326" fill="#D6E6ED"/>
<circle cx="73.5701" cy="103.367" r="8.06326" fill="#D6E6ED"/>
<circle cx="41.3163" cy="42.3163" r="40.3163" fill="#D6E6ED"/>
<path d="M46.2679 51.89C46.8202 51.89 47.2778 52.3418 47.1721 52.8839C46.991 53.812 46.5587 54.6719 45.9186 55.3523C45.0546 56.2705 43.8827 56.7864 42.6608 56.7864C41.4389 56.7864 40.2671 56.2705 39.4031 55.3523C38.763 54.6719 38.3306 53.812 38.1496 52.8839C38.0439 52.3418 38.5014 51.89 39.0537 51.89L42.6608 51.89H46.2679Z" fill="#50545D"/>
<ellipse cx="30.6619" cy="42.6043" rx="5.4715" ry="5.4715" fill="#50545D"/>
<ellipse cx="54.2752" cy="42.0286" rx="5.4715" ry="5.4715" fill="#50545D"/>
<ellipse cx="22.8863" cy="50.3795" rx="3.45568" ry="3.45568" fill="#E5C8D6"/>
<ellipse cx="61.4752" cy="50.3795" rx="3.45568" ry="3.45568" fill="#E5C8D6"/>
<ellipse cx="32.6773" cy="40.5884" rx="1.15189" ry="1.15189" fill="white"/>
<ellipse cx="56.2915" cy="40.0127" rx="1.15189" ry="1.15189" fill="white"/>
<rect width="83.2632" height="63.0421" transform="matrix(-1 0 0 1 83.2627 41.6318)" fill="#D6E6ED"/>
<circle cx="41.6316" cy="41.6316" r="41.6316" transform="matrix(-1 0 0 1 83.2627 0)" fill="#D6E6ED"/>
<circle cx="8.32632" cy="8.32632" r="8.32632" transform="matrix(-1 0 0 1 83.2627 96.3477)" fill="#D6E6ED"/>
<circle cx="8.32632" cy="8.32632" r="8.32632" transform="matrix(-1 0 0 1 66.6104 96.3477)" fill="#D6E6ED"/>
<circle cx="8.32632" cy="8.32632" r="8.32632" transform="matrix(-1 0 0 1 49.957 96.3477)" fill="#D6E6ED"/>
<circle cx="8.32632" cy="8.32632" r="8.32632" transform="matrix(-1 0 0 1 33.3057 96.3477)" fill="#D6E6ED"/>
<circle cx="8.32632" cy="8.32632" r="8.32632" transform="matrix(-1 0 0 1 16.6523 96.3477)" fill="#D6E6ED"/>
<path d="M46.9842 41.3346C46.9842 42.833 47.5794 44.2701 48.639 45.3297C49.6986 46.3893 51.1357 46.9846 52.6342 46.9846C54.1327 46.9846 55.5698 46.3893 56.6293 45.3297C57.6889 44.2701 58.2842 42.833 58.2842 41.3346L52.6342 41.3346H46.9842Z" fill="#50545D"/>
<path d="M22.6004 41.3346C22.6004 42.0765 22.7465 42.8112 23.0305 43.4967C23.3144 44.1822 23.7306 44.8051 24.2552 45.3297C24.7799 45.8544 25.4027 46.2706 26.0882 46.5545C26.7737 46.8384 27.5084 46.9846 28.2504 46.9846C28.9924 46.9846 29.7271 46.8384 30.4126 46.5545C31.098 46.2706 31.7209 45.8544 32.2455 45.3297C32.7702 44.8051 33.1864 44.1822 33.4703 43.4967C33.7542 42.8112 33.9004 42.0765 33.9004 41.3346L28.2504 41.3346H22.6004Z" fill="#50545D"/>
<ellipse cx="3.56842" cy="1.48684" rx="3.56842" ry="1.48684" transform="matrix(-1 0 0 1 62.4463 46.9844)" fill="#E5C8D6"/>
<path d="M17.8417 48.4712C17.8417 49.2924 19.4393 49.9581 21.4101 49.9581C23.3809 49.9581 24.9785 49.2924 24.9785 48.4712C24.9785 47.6501 23.3809 46.9844 21.4101 46.9844C19.4393 46.9844 17.8417 47.6501 17.8417 48.4712Z" fill="#E5C8D6"/>
<rect width="13.0842" height="8.32632" transform="matrix(-1 0 0 1 46.3896 54.1211)" fill="#D6E6ED"/>
<path d="M35.0897 55.608C35.0897 58.3999 37.2199 60.6633 39.8476 60.6633C42.4753 60.6633 44.6055 58.3999 44.6055 55.608C44.6055 52.8161 42.4753 50.5527 39.8476 50.5527C37.2199 50.5527 35.0897 52.8161 35.0897 55.608Z" stroke="#50545D"/>
<rect width="13.0842" height="8.32632" transform="matrix(-1 0 0 1 46.3896 54.1211)" fill="#D6E6ED"/>
</svg>
