<svg width="390" height="353" viewBox="0 0 390 353" fill="none" xmlns="http://www.w3.org/2000/svg">
<ellipse cx="195" cy="47" rx="309" ry="306" fill="white" fill-opacity="0.74"/>
<ellipse cx="195" cy="47" rx="309" ry="306" fill="white" fill-opacity="0.74"/>
<ellipse cx="195" cy="47" rx="309" ry="306" fill="#D9D9D9" fill-opacity="0.49"/>
<ellipse cx="195" cy="47" rx="309" ry="306" fill="#DBE8ED"/>
<ellipse cx="195" cy="-13" rx="309" ry="306" fill="white" fill-opacity="0.74"/>
<ellipse cx="195" cy="-13" rx="309" ry="306" fill="white" fill-opacity="0.74"/>
<ellipse cx="195" cy="-13" rx="309" ry="306" fill="#D9D9D9" fill-opacity="0.49"/>
<ellipse cx="195" cy="-13" rx="309" ry="306" fill="#B8D1DB"/>
<ellipse cx="195" cy="-73" rx="309" ry="306" fill="white" fill-opacity="0.74"/>
<ellipse cx="195" cy="-73" rx="309" ry="306" fill="white" fill-opacity="0.74"/>
<ellipse cx="195" cy="-73" rx="309" ry="306" fill="#D9D9D9" fill-opacity="0.49"/>
<ellipse cx="195" cy="-73" rx="309" ry="306" fill="#94BAC9"/>
<ellipse cx="195" cy="-133" rx="309" ry="306" fill="white" fill-opacity="0.74"/>
<ellipse cx="195" cy="-133" rx="309" ry="306" fill="white" fill-opacity="0.74"/>
<ellipse cx="195" cy="-133" rx="309" ry="306" fill="#D9D9D9" fill-opacity="0.49"/>
<ellipse cx="195" cy="-133" rx="309" ry="306" fill="#7B9BA7"/>
</svg>
