<svg width="105" height="111" viewBox="0 0 105 111" fill="none" xmlns="http://www.w3.org/2000/svg">
<rect x="11.8057" y="40.895" width="81.7896" height="61.9264" fill="#D6E6ED"/>
<circle cx="19.9846" cy="102.821" r="8.17896" fill="#D6E6ED"/>
<circle cx="36.342" cy="102.821" r="8.17896" fill="#D6E6ED"/>
<circle cx="52.7009" cy="102.821" r="8.17896" fill="#D6E6ED"/>
<circle cx="69.0584" cy="102.821" r="8.17896" fill="#D6E6ED"/>
<circle cx="85.4168" cy="102.821" r="8.17896" fill="#D6E6ED"/>
<circle cx="52.7005" cy="40.8948" r="40.8948" fill="#D6E6ED"/>
<path d="M44.7634 39.2029C44.7634 40.5202 44.2711 41.7835 43.3947 42.7149C42.5183 43.6463 41.3296 44.1696 40.0902 44.1696C38.8508 44.1696 37.6621 43.6463 36.7857 42.7149C35.9093 41.7835 35.417 40.5202 35.417 39.2029L36.6839 39.2029C36.6839 40.1631 37.0428 41.0839 37.6816 41.7628C38.3204 42.4417 39.1868 42.8231 40.0902 42.8231C40.9936 42.8231 41.86 42.4417 42.4988 41.7628C43.1377 41.0839 43.4965 40.1631 43.4965 39.2029H44.7634Z" fill="#50545D"/>
<path d="M69.5554 39.2029C69.5554 40.5202 69.0631 41.7835 68.1867 42.7149C67.3103 43.6463 66.1216 44.1696 64.8822 44.1696C63.6428 44.1696 62.4541 43.6463 61.5777 42.7149C60.7013 41.7835 60.209 40.5202 60.209 39.2029L61.4759 39.2029C61.4759 40.1631 61.8348 41.0839 62.4736 41.7628C63.1124 42.4417 63.9788 42.8231 64.8822 42.8231C65.7856 42.8231 66.652 42.4417 67.2908 41.7628C67.9296 41.0839 68.2885 40.1631 68.2885 39.2029H69.5554Z" fill="#50545D"/>
<ellipse cx="34.0417" cy="47.0441" rx="3.54169" ry="1.4757" fill="#E5C8D6"/>
<ellipse cx="71.4245" cy="46.9274" rx="3.54169" ry="1.4757" fill="#E5C8D6"/>
<path d="M30.2812 65.738L34.5592 67.223C41.704 69.703 38.9642 80.3879 31.5076 79.1239V79.1239" stroke="#50545D"/>
<path d="M74.1983 65.7361L69.9202 67.221C62.7755 69.7011 65.5153 80.3859 72.9719 79.122V79.122" stroke="#50545D"/>
<ellipse cx="52.5349" cy="51.0595" rx="2.9514" ry="3.83683" fill="#50545D"/>
<path d="M57.4716 58.4487C57.1294 58.4255 56.9523 58.2052 56.9712 57.9392C56.9875 57.6802 57.1878 57.4725 57.507 57.4951C58.6364 57.5399 59.8447 57.7536 60.9665 58.1619C62.2742 58.6379 63.142 59.1875 64.2845 59.6034C64.959 59.8489 65.5429 59.5937 65.7708 58.9674C65.9988 58.3411 65.6967 57.7791 65.1254 57.5712C64.6918 57.4134 64.22 57.5534 63.9408 57.8493C63.6961 58.072 63.4026 58.0431 63.2225 57.8528C63.0267 57.6413 63.0806 57.3647 63.2733 57.1777C63.8004 56.629 64.669 56.384 65.4536 56.6696C66.5135 57.0554 67.0807 58.1737 66.6724 59.2956C66.2741 60.3899 65.1977 60.949 63.9588 60.4981C62.7613 60.0622 61.9073 59.5176 60.6409 59.0567C59.6636 58.7009 58.578 58.4929 57.4716 58.4487ZM67.0635 65.5876C64.7441 64.7434 63.1265 62.8063 60.3804 61.8068C59.0245 61.3133 57.7869 61.0732 56.5097 61.0916C56.1693 61.0846 55.9879 60.8549 56.0068 60.589C56.0231 60.3299 56.2278 60.1316 56.5475 60.1311C57.9142 60.1453 59.2907 60.3891 60.7085 60.9051C63.4616 61.9072 65.29 63.9289 67.3892 64.6929C68.5042 65.0987 69.4573 64.7286 69.7905 63.8132C70.1186 62.9116 69.6652 62.0373 68.8255 61.7316C68.1029 61.4686 67.3262 61.7393 66.9462 62.4194C66.7734 62.7229 66.4955 62.801 66.2534 62.6739C66.0182 62.5493 65.9425 62.2646 66.0891 61.9905C66.6676 60.915 67.9055 60.3835 69.1512 60.8369C70.4933 61.3254 71.2031 62.7373 70.6921 64.1413C70.1735 65.566 68.6672 66.1713 67.0635 65.5876ZM60.9271 68.8491C59.8741 68.4658 59.4432 67.4439 59.6675 66.4421C59.729 66.1449 59.948 65.9284 60.2653 66.0205C60.5687 66.1076 60.6769 66.3886 60.6255 66.6583C60.5114 67.2715 60.709 67.7565 61.2527 67.9544C61.7965 68.1523 62.3772 67.9272 62.6052 67.3009C62.9709 66.296 61.8774 65.1887 59.3791 64.2794C58.1402 63.8285 56.8375 63.596 55.6004 63.59C55.26 63.583 55.0786 63.3533 55.0974 63.0874C55.1138 62.8283 55.3184 62.63 55.6382 62.6295C56.9535 62.6561 58.4271 62.9119 59.7072 63.3778C62.7631 64.49 64.0911 66.0022 63.4999 67.6265C63.0916 68.7484 61.987 69.2349 60.9271 68.8491Z" fill="white"/>
</svg>
