<svg width="140" height="189" viewBox="0 0 140 189" fill="none" xmlns="http://www.w3.org/2000/svg">
<rect x="0.762207" y="69.2798" width="138.561" height="104.91" fill="#D6E6ED"/>
<circle cx="70.0425" cy="69.2803" r="69.2803" fill="#D6E6ED"/>
<circle cx="14.6183" cy="174.191" r="13.856" fill="#D6E6ED"/>
<circle cx="42.3304" cy="174.191" r="13.856" fill="#D6E6ED"/>
<circle cx="70.0423" cy="174.191" r="13.856" fill="#D6E6ED"/>
<circle cx="97.7545" cy="174.191" r="13.856" fill="#D6E6ED"/>
<circle cx="125.467" cy="174.191" r="13.856" fill="#D6E6ED"/>
<path d="M59.7019 69.7754C59.7019 72.269 58.7113 74.6605 56.948 76.4238C55.1847 78.1871 52.7932 79.1777 50.2995 79.1777C47.8059 79.1777 45.4144 78.1871 43.6511 76.4238C41.8878 74.6605 40.8972 72.269 40.8972 69.7754H43.4462C43.4462 71.593 44.1682 73.3362 45.4535 74.6214C46.7387 75.9067 48.4819 76.6287 50.2995 76.6287C52.1172 76.6287 53.8603 75.9067 55.1456 74.6214C56.4308 73.3362 57.1529 71.593 57.1529 69.7754H59.7019Z" fill="#50545D"/>
<path d="M100.28 68.7856C100.28 71.2793 99.2896 73.6708 97.5263 75.4341C95.7631 77.1973 93.3716 78.1879 90.8779 78.1879C88.3843 78.1879 85.9927 77.1973 84.2295 75.4341C82.4662 73.6708 81.4756 71.2793 81.4756 68.7856H84.0246C84.0246 70.6032 84.7466 72.3464 86.0319 73.6316C87.3171 74.9169 89.0603 75.6389 90.8779 75.6389C92.6955 75.6389 94.4387 74.9169 95.7239 73.6316C97.0092 72.3464 97.7312 70.6032 97.7312 68.7856H100.28Z" fill="#50545D"/>
<circle cx="36.9383" cy="83.1366" r="5.93831" fill="#E5C8D6"/>
<path d="M80.2785 85.7319C80.2785 87.9634 79.4444 90.1035 77.9597 91.6815C76.4749 93.2594 74.4612 94.1459 72.3615 94.1459C70.2618 94.1459 68.2481 93.2594 66.7634 91.6815C65.2787 90.1035 64.4446 87.9634 64.4446 85.7319H66.5909C66.5909 87.3584 67.1988 88.9184 68.2811 90.0685C69.3633 91.2187 70.8311 91.8648 72.3615 91.8648C73.892 91.8648 75.3598 91.2187 76.442 90.0685C77.5242 88.9184 78.1322 87.3584 78.1322 85.7319H80.2785Z" fill="#50545D"/>
<circle cx="103.25" cy="83.1366" r="5.93831" fill="#E5C8D6"/>
</svg>
