<svg width="390" height="529" viewBox="0 0 390 529" fill="none" xmlns="http://www.w3.org/2000/svg">
<rect y="194.894" width="389.789" height="295.126" fill="#D6E6ED"/>
<circle cx="194.895" cy="194.895" r="194.895" fill="#D6E6ED"/>
<circle cx="38.9789" cy="490.021" r="38.9789" fill="#D6E6ED"/>
<circle cx="116.936" cy="490.021" r="38.9789" fill="#D6E6ED"/>
<circle cx="194.895" cy="490.021" r="38.9789" fill="#D6E6ED"/>
<circle cx="272.852" cy="490.021" r="38.9789" fill="#D6E6ED"/>
<circle cx="350.811" cy="490.021" r="38.9789" fill="#D6E6ED"/>
<path d="M169.836 196.288C169.836 203.303 167.049 210.031 162.089 214.991C157.129 219.951 150.401 222.738 143.386 222.738C136.371 222.738 129.643 219.951 124.683 214.991C119.723 210.031 116.936 203.303 116.936 196.288H124.107C124.107 201.401 126.138 206.305 129.753 209.92C133.369 213.536 138.273 215.567 143.386 215.567C148.499 215.567 153.403 213.536 157.019 209.92C160.634 206.305 162.665 201.401 162.665 196.288H169.836Z" fill="#50545D"/>
<path d="M283.989 193.503C283.989 200.518 281.203 207.246 276.242 212.206C271.282 217.167 264.554 219.953 257.539 219.953C250.524 219.953 243.797 217.167 238.836 212.206C233.876 207.246 231.089 200.518 231.089 193.503H238.26C238.26 198.616 240.291 203.52 243.907 207.136C247.522 210.751 252.426 212.782 257.539 212.782C262.652 212.782 267.556 210.751 271.172 207.136C274.787 203.52 276.818 198.616 276.818 193.503H283.989Z" fill="#50545D"/>
<circle cx="105.8" cy="233.874" r="16.7053" fill="#E5C8D6"/>
<path d="M227.721 241.175C227.721 247.453 225.374 253.473 221.198 257.912C217.021 262.351 211.356 264.845 205.449 264.845C199.543 264.845 193.878 262.351 189.701 257.912C185.524 253.473 183.178 247.453 183.178 241.175L189.216 241.175C189.216 245.751 190.926 250.139 193.971 253.375C197.015 256.61 201.144 258.428 205.449 258.428C209.755 258.428 213.884 256.61 216.928 253.375C219.973 250.139 221.683 245.751 221.683 241.175H227.721Z" fill="#50545D"/>
<circle cx="292.342" cy="233.874" r="16.7053" fill="#E5C8D6"/>
</svg>
