<svg width="140" height="190" viewBox="0 0 140 190" fill="none" xmlns="http://www.w3.org/2000/svg">
<rect y="70" width="140" height="106" fill="#D6E6ED"/>
<circle cx="70" cy="70" r="70" fill="#D6E6ED"/>
<circle cx="14" cy="176" r="14" fill="#D6E6ED"/>
<circle cx="42" cy="176" r="14" fill="#D6E6ED"/>
<circle cx="70" cy="176" r="14" fill="#D6E6ED"/>
<circle cx="98" cy="176" r="14" fill="#D6E6ED"/>
<circle cx="126" cy="176" r="14" fill="#D6E6ED"/>
<circle cx="38" cy="84" r="6" fill="#E5C8D6"/>
<circle cx="105" cy="84" r="6" fill="#E5C8D6"/>
<path fill-rule="evenodd" clip-rule="evenodd" d="M62.6069 84C63.2902 88.7501 67.1676 92.5 71.9999 92.5C76.8321 92.5 80.7095 88.7501 81.3929 84H78.3517C77.7077 87.198 75.0468 89.5 71.9999 89.5C68.953 89.5 66.2921 87.198 65.6481 84H62.6069Z" fill="#50545D"/>
<path d="M61 70.5C61 73.0196 59.9991 75.4359 58.2175 77.2175C56.4359 78.9991 54.0196 80 51.5 80C48.9804 80 46.5641 78.9991 44.7825 77.2175C43.0009 75.4359 42 73.0196 42 70.5L44.5754 70.5C44.5755 72.3365 45.305 74.0978 46.6036 75.3964C47.9022 76.695 49.6635 77.4246 51.5 77.4246C53.3365 77.4245 55.0978 76.695 56.3964 75.3964C57.695 74.0978 58.4246 72.3365 58.4246 70.5H61Z" fill="#50545D"/>
<path d="M102 69.5C102 72.0196 100.999 74.4359 99.2175 76.2175C97.4359 77.9991 95.0196 79 92.5 79C89.9804 79 87.5641 77.9991 85.7825 76.2175C84.0009 74.4359 83 72.0196 83 69.5L85.5754 69.5C85.5755 71.3365 86.305 73.0978 87.6036 74.3964C88.9022 75.695 90.6635 76.4246 92.5 76.4246C94.3365 76.4245 96.0978 75.695 97.3964 74.3964C98.695 73.0978 99.4246 71.3365 99.4246 69.5H102Z" fill="#50545D"/>
</svg>
