<svg width="94" height="94" viewBox="0 0 94 94" fill="none" xmlns="http://www.w3.org/2000/svg">
<circle cx="47" cy="47" r="47" fill="#D6E6ED"/>
<path d="M27.8145 44.4355C27.8145 41.2508 30.2443 38.669 33.2417 38.669C36.2391 38.669 38.6689 41.2508 38.6689 44.4355C38.6689 47.6202 36.2391 50.2019 33.2417 50.2019C30.2443 50.2019 27.8145 47.6202 27.8145 44.4355Z" stroke="#50545D" stroke-width="3"/>
<rect x="40.7041" y="46.1315" width="14.9249" height="9.49766" transform="rotate(-180 40.7041 46.1315)" fill="#D6E6ED"/>
<path d="M56.9854 44.4355C56.9854 41.2508 59.4152 38.669 62.4126 38.669C65.41 38.669 67.8398 41.2508 67.8398 44.4355C67.8398 47.6202 65.41 50.2019 62.4126 50.2019C59.4152 50.2019 56.9854 47.6202 56.9854 44.4355Z" stroke="#50545D" stroke-width="3"/>
<rect x="69.875" y="46.1315" width="14.9249" height="9.49766" transform="rotate(-180 69.875 46.1315)" fill="#D6E6ED"/>
<ellipse cx="69.8342" cy="53.2373" rx="4.02856" ry="1.67857" fill="#E5C8D6"/>
<ellipse cx="25.7375" cy="53.2373" rx="4.02856" ry="1.67857" fill="#E5C8D6"/>
<line x1="42.0615" y1="59.5564" x2="54.2728" y2="59.5564" stroke="#50545D" stroke-width="3"/>
</svg>
