<svg width="177" height="189" viewBox="0 0 177 189" fill="none" xmlns="http://www.w3.org/2000/svg">
<circle cx="111.549" cy="68.7856" r="9.40232" fill="#50545D"/>
<circle cx="123.92" cy="83.1366" r="5.93831" fill="#E5C8D6"/>
<rect x="20" y="69.2803" width="138.561" height="104.91" fill="#D6E6ED"/>
<circle cx="33.856" cy="174.19" r="13.856" fill="#D6E6ED"/>
<circle cx="61.5682" cy="174.19" r="13.856" fill="#D6E6ED"/>
<circle cx="89.2804" cy="174.19" r="13.856" fill="#D6E6ED"/>
<circle cx="116.992" cy="174.19" r="13.856" fill="#D6E6ED"/>
<circle cx="144.704" cy="174.19" r="13.856" fill="#D6E6ED"/>
<circle cx="89.2803" cy="69.2803" r="69.2803" fill="#D6E6ED"/>
<ellipse cx="57.6709" cy="79.6982" rx="6" ry="2.5" fill="#E5C8D6"/>
<ellipse cx="121" cy="79.5" rx="6" ry="2.5" fill="#E5C8D6"/>
<path d="M51.2998 111.367L63.5711 115.627C75.1617 119.65 70.717 136.984 58.6206 134.933L53.3776 134.044" stroke="#50545D"/>
<path d="M125.7 111.364L113.429 115.624C101.838 119.647 106.283 136.981 118.379 134.93L123.622 134.041" stroke="#50545D"/>
<circle cx="68.4023" cy="67.3921" r="9.40232" fill="#50545D"/>
<circle cx="108.981" cy="66.4023" r="9.40232" fill="#50545D"/>
<circle cx="71.8664" cy="63.9282" r="1.97944" fill="white"/>
<circle cx="112.445" cy="62.9384" r="1.97944" fill="white"/>
<path d="M98.3291 91.5V91.5C95.9794 90.0902 95.8611 86.7276 98.106 85.1562L98.3293 84.9999" stroke="#50545D"/>
<path d="M81.3293 91.5V91.5C83.6791 90.0902 83.7973 86.7276 81.5524 85.1562L81.3292 84.9999" stroke="#50545D"/>
<path d="M83.3291 88.5027C88.2798 86.7713 91.1323 86.8894 96.3291 88.5027" stroke="#50545D"/>
</svg>
