<svg width="105" height="112" viewBox="0 0 105 112" fill="none" xmlns="http://www.w3.org/2000/svg">
<circle cx="73.5125" cy="49.3181" r="3.52272" fill="#E5C8D6"/>
<rect x="11.8647" y="41.0986" width="82.1968" height="62.2348" fill="#D6E6ED"/>
<circle cx="20.0844" cy="103.333" r="8.21968" fill="#D6E6ED"/>
<circle cx="36.5239" cy="103.333" r="8.21968" fill="#D6E6ED"/>
<circle cx="52.9631" cy="103.333" r="8.21968" fill="#D6E6ED"/>
<circle cx="69.4025" cy="103.333" r="8.21968" fill="#D6E6ED"/>
<circle cx="85.842" cy="103.333" r="8.21968" fill="#D6E6ED"/>
<circle cx="52.9629" cy="41.0984" r="41.0984" fill="#D6E6ED"/>
<ellipse cx="34.2117" cy="47.2785" rx="3.55932" ry="1.48305" fill="#E5C8D6"/>
<path d="M30.4321 66.0653L34.7314 67.5577C41.9117 70.0501 39.1583 80.7881 31.6647 79.5178V79.5178" stroke="#50545D"/>
<path d="M74.5679 66.0633L70.2686 67.5557C63.0883 70.0481 65.8417 80.7862 73.3353 79.5159V79.5159" stroke="#50545D"/>
<path d="M46.1553 39.3911C46.1553 40.1236 46.011 40.8489 45.7307 41.5256C45.4504 42.2023 45.0396 42.8172 44.5216 43.3351C44.0037 43.853 43.3888 44.2639 42.7121 44.5442C42.0354 44.8245 41.3101 44.9688 40.5776 44.9688C39.8452 44.9688 39.1199 44.8245 38.4432 44.5442C37.7665 44.2639 37.1516 43.853 36.6337 43.3351C36.1157 42.8172 35.7049 42.2023 35.4246 41.5256C35.1443 40.8489 35 40.1236 35 39.3911L40.5776 39.3911H46.1553Z" fill="#50545D"/>
<path d="M70.2271 39.3911C70.2271 40.8704 69.6394 42.2891 68.5934 43.3351C67.5474 44.3811 66.1287 44.9688 64.6494 44.9688C63.1701 44.9688 61.7514 44.3811 60.7054 43.3351C59.6594 42.2891 59.0718 40.8704 59.0718 39.3911L64.6494 39.3911H70.2271Z" fill="#50545D"/>
<ellipse cx="52.7964" cy="51.3134" rx="2.9661" ry="3.85593" fill="#50545D"/>
</svg>
