<svg width="177" height="189" viewBox="0 0 177 189" fill="none" xmlns="http://www.w3.org/2000/svg">
<circle cx="111.549" cy="68.7856" r="9.40232" fill="#50545D"/>
<circle cx="123.92" cy="83.1366" r="5.93831" fill="#E5C8D6"/>
<rect x="20" y="69.2803" width="138.561" height="104.91" fill="#D6E6ED"/>
<circle cx="33.856" cy="174.19" r="13.856" fill="#D6E6ED"/>
<circle cx="61.5682" cy="174.19" r="13.856" fill="#D6E6ED"/>
<circle cx="89.2804" cy="174.19" r="13.856" fill="#D6E6ED"/>
<circle cx="116.992" cy="174.19" r="13.856" fill="#D6E6ED"/>
<circle cx="144.704" cy="174.19" r="13.856" fill="#D6E6ED"/>
<circle cx="89.2803" cy="69.2803" r="69.2803" fill="#D6E6ED"/>
<ellipse cx="89" cy="86.5" rx="5" ry="6.5" fill="#50545D"/>
<ellipse cx="57.6709" cy="79.6982" rx="6" ry="2.5" fill="#E5C8D6"/>
<ellipse cx="121" cy="79.5" rx="6" ry="2.5" fill="#E5C8D6"/>
<path d="M51.2998 111.367L63.5711 115.627C75.1617 119.65 70.717 136.984 58.6206 134.933L53.3776 134.044" stroke="#50545D"/>
<path d="M125.7 111.364L113.429 115.624C101.838 119.647 106.283 136.981 118.379 134.93L123.622 134.041" stroke="#50545D"/>
<path d="M76.163 66.414C76.163 68.6455 75.3289 70.7857 73.8442 72.3636C72.3595 73.9415 70.3458 74.828 68.2461 74.828C66.1463 74.828 64.1326 73.9415 62.6479 72.3636C61.1632 70.7857 60.3291 68.6455 60.3291 66.414L62.4754 66.414C62.4754 68.0406 63.0834 69.6005 64.1656 70.7507C65.2478 71.9008 66.7156 72.547 68.2461 72.547C69.7765 72.547 71.2443 71.9008 72.3265 70.7507C73.4087 69.6005 74.0167 68.0406 74.0167 66.414H76.163Z" fill="#50545D"/>
<path d="M118.163 66.414C118.163 68.6455 117.329 70.7857 115.844 72.3636C114.359 73.9415 112.346 74.828 110.246 74.828C108.146 74.828 106.133 73.9415 104.648 72.3636C103.163 70.7857 102.329 68.6455 102.329 66.414L104.475 66.414C104.475 68.0406 105.083 69.6005 106.166 70.7507C107.248 71.9008 108.716 72.547 110.246 72.547C111.777 72.547 113.244 71.9008 114.327 70.7507C115.409 69.6005 116.017 68.0406 116.017 66.414H118.163Z" fill="#50545D"/>
<ellipse cx="58" cy="79.6982" rx="6" ry="2.5" fill="#E5C8D6"/>
<ellipse cx="121.329" cy="79.5" rx="6" ry="2.5" fill="#E5C8D6"/>
<ellipse cx="89.3291" cy="86.5" rx="5" ry="6.5" fill="#50545D"/>
</svg>
