<svg width="177" height="189" viewBox="0 0 177 189" fill="none" xmlns="http://www.w3.org/2000/svg">
<circle cx="111.549" cy="68.7856" r="9.40232" fill="#50545D"/>
<circle cx="123.92" cy="83.1366" r="5.93831" fill="#E5C8D6"/>
<rect x="20" y="69.2803" width="138.561" height="104.91" fill="#D6E6ED"/>
<circle cx="33.856" cy="174.19" r="13.856" fill="#D6E6ED"/>
<circle cx="61.5682" cy="174.19" r="13.856" fill="#D6E6ED"/>
<circle cx="89.2804" cy="174.19" r="13.856" fill="#D6E6ED"/>
<circle cx="116.992" cy="174.19" r="13.856" fill="#D6E6ED"/>
<circle cx="144.704" cy="174.19" r="13.856" fill="#D6E6ED"/>
<circle cx="89.2803" cy="69.2803" r="69.2803" fill="#D6E6ED"/>
<ellipse cx="57.6709" cy="79.6982" rx="6" ry="2.5" fill="#E5C8D6"/>
<ellipse cx="121" cy="79.5" rx="6" ry="2.5" fill="#E5C8D6"/>
<path d="M51.2998 111.367L63.5711 115.627C75.1617 119.65 70.717 136.984 58.6206 134.933L53.3776 134.044" stroke="#50545D"/>
<path d="M125.7 111.364L113.429 115.624C101.838 119.647 106.283 136.981 118.379 134.93L123.622 134.041" stroke="#50545D"/>
<circle cx="68.4023" cy="67.3921" r="9.40232" fill="#50545D"/>
<circle cx="108.981" cy="66.4023" r="9.40232" fill="#50545D"/>
<circle cx="71.8664" cy="63.9282" r="1.97944" fill="white"/>
<circle cx="112.445" cy="62.9384" r="1.97944" fill="white"/>
<path d="M96.0968 82.9412C96.6491 82.9412 97.1027 83.3904 97.0401 83.9391C96.8313 85.7685 96.0525 87.4824 94.8138 88.7989C93.3521 90.3524 91.3695 91.2252 89.3022 91.2252C87.2349 91.2252 85.2523 90.3524 83.7906 88.7989C82.5519 87.4824 81.7731 85.7685 81.5643 83.9391C81.5017 83.3904 81.9553 82.9412 82.5076 82.9412L89.3022 82.9412H96.0968Z" fill="#50545D"/>
</svg>
