<svg width="140" height="190" viewBox="0 0 140 190" fill="none" xmlns="http://www.w3.org/2000/svg">
<rect y="70" width="140" height="106" fill="#D6E6ED"/>
<circle cx="70" cy="70" r="70" fill="#D6E6ED"/>
<circle cx="14" cy="176" r="14" fill="#D6E6ED"/>
<circle cx="42" cy="176" r="14" fill="#D6E6ED"/>
<circle cx="70" cy="176" r="14" fill="#D6E6ED"/>
<circle cx="98" cy="176" r="14" fill="#D6E6ED"/>
<circle cx="126" cy="176" r="14" fill="#D6E6ED"/>
<path d="M61 69.5C61 72.0196 59.9991 74.4359 58.2175 76.2175C56.4359 77.9991 54.0196 79 51.5 79C48.9804 79 46.5641 77.9991 44.7825 76.2175C43.0009 74.4359 42 72.0196 42 69.5L51.5 69.5H61Z" fill="#50545D"/>
<path d="M102 69.5C102 70.7476 101.754 71.9829 101.277 73.1355C100.799 74.2881 100.1 75.3354 99.2175 76.2175C98.3354 77.0997 97.2881 77.7994 96.1355 78.2769C94.9829 78.7543 93.7476 79 92.5 79C91.2524 79 90.0171 78.7543 88.8645 78.2769C87.7119 77.7994 86.6646 77.0997 85.7825 76.2175C84.9003 75.3354 84.2006 74.2881 83.7231 73.1355C83.2457 71.9829 83 70.7476 83 69.5L92.5 69.5H102Z" fill="#50545D"/>
<ellipse cx="41" cy="81.5" rx="6" ry="2.5" fill="#E5C8D6"/>
<path d="M110 81.5C110 82.8807 107.314 84 104 84C100.686 84 98 82.8807 98 81.5C98 80.1193 100.686 79 104 79C107.314 79 110 80.1193 110 81.5Z" fill="#E5C8D6"/>
<rect x="62" y="91" width="22" height="14" fill="#D6E6ED"/>
<path d="M81 93.5C81 98.1944 77.4183 102 73 102C68.5817 102 65 98.1944 65 93.5C65 88.8056 68.5817 85 73 85C77.4183 85 81 88.8056 81 93.5Z" stroke="#50545D" stroke-width="3"/>
<rect x="62" y="91" width="22" height="14" fill="#D6E6ED"/>
</svg>
