<svg width="105" height="112" viewBox="0 0 105 112" fill="none" xmlns="http://www.w3.org/2000/svg">
<circle cx="73.5122" cy="49.3181" r="3.52272" fill="#E5C8D6"/>
<rect x="11.865" y="41.0986" width="82.1969" height="62.2348" fill="#D6E6ED"/>
<circle cx="20.0847" cy="103.333" r="8.21969" fill="#D6E6ED"/>
<circle cx="36.5232" cy="103.333" r="8.21969" fill="#D6E6ED"/>
<circle cx="52.9629" cy="103.333" r="8.21969" fill="#D6E6ED"/>
<circle cx="69.4028" cy="103.333" r="8.21969" fill="#D6E6ED"/>
<circle cx="85.842" cy="103.333" r="8.21969" fill="#D6E6ED"/>
<circle cx="52.9634" cy="41.0984" r="41.0984" fill="#D6E6ED"/>
<ellipse cx="34.2117" cy="47.2785" rx="3.55932" ry="1.48305" fill="#E5C8D6"/>
<ellipse cx="71.7803" cy="47.1613" rx="3.55932" ry="1.48305" fill="#E5C8D6"/>
<path d="M30.4321 66.0653L34.7315 67.5577C41.9118 70.0501 39.1583 80.7881 31.6647 79.5179V79.5179" stroke="#50545D"/>
<path d="M74.5679 66.0633L70.2685 67.5557C63.0882 70.0481 65.8417 80.7862 73.3353 79.5159V79.5159" stroke="#50545D"/>
<path d="M46.1558 39.3916C46.1558 40.1241 46.0115 40.8494 45.7312 41.5261C45.4509 42.2028 45.0401 42.8177 44.5221 43.3356C44.0042 43.8535 43.3893 44.2644 42.7126 44.5447C42.0359 44.825 41.3106 44.9693 40.5781 44.9693C39.8457 44.9693 39.1204 44.825 38.4437 44.5447C37.767 44.2644 37.1521 43.8535 36.6341 43.3356C36.1162 42.8177 35.7054 42.2028 35.4251 41.5261C35.1448 40.8494 35.0005 40.1241 35.0005 39.3916L40.5781 39.3916H46.1558Z" fill="#50545D"/>
<path d="M70.2276 39.3916C70.2276 40.8709 69.6399 42.2896 68.5939 43.3356C67.5479 44.3816 66.1292 44.9693 64.6499 44.9693C63.1706 44.9693 61.7519 44.3816 60.7059 43.3356C59.6599 42.2896 59.0723 40.8709 59.0723 39.3916L64.6499 39.3916H70.2276Z" fill="#50545D"/>
<path d="M58.7286 54.2793V54.2793C57.3346 53.4429 57.2645 51.4482 58.5962 50.516L58.7287 50.4233" stroke="#50545D"/>
<path d="M48.6445 54.2793V54.2793C50.0384 53.4429 50.1086 51.4482 48.7768 50.516L48.6444 50.4233" stroke="#50545D"/>
<path d="M49.8301 52.5016C52.7669 51.4745 54.4591 51.5446 57.5419 52.5016" stroke="#50545D"/>
</svg>
