<svg width="92" height="92" viewBox="0 0 92 92" fill="none" xmlns="http://www.w3.org/2000/svg">
<circle cx="46" cy="46" r="46" fill="#D6E6ED"/>
<ellipse cx="33.843" cy="45.6714" rx="6.24286" ry="6.24286" fill="#50545D"/>
<ellipse cx="60.7858" cy="45.6714" rx="6.24286" ry="6.24286" fill="#50545D"/>
<ellipse cx="26.9429" cy="53.5572" rx="3.94286" ry="1.64286" fill="#E5C8D6"/>
<path d="M72.2856 53.5572C72.2856 54.4645 70.5203 55.2 68.3428 55.2C66.1652 55.2 64.3999 54.4645 64.3999 53.5572C64.3999 52.6498 66.1652 51.9143 68.3428 51.9143C70.5203 51.9143 72.2856 52.6498 72.2856 53.5572Z" fill="#E5C8D6"/>
<rect x="54.543" y="37.4572" width="12.4857" height="7.88572" fill="#D6E6ED"/>
<rect x="27.6001" y="37.4572" width="12.4857" height="7.88572" fill="#D6E6ED"/>
<path d="M53.2286 61.4429C53.2286 64.5278 50.8749 67.0286 47.9715 67.0286C45.0681 67.0286 42.7144 64.5278 42.7144 61.4429C42.7144 58.358 45.0681 55.8572 47.9715 55.8572C50.8749 55.8572 53.2286 58.358 53.2286 61.4429Z" stroke="#50545D" stroke-width="3"/>
<rect x="40.7429" y="59.8" width="14.4571" height="9.2" fill="#D6E6ED"/>
</svg>
