<svg width="215" height="209" viewBox="0 0 215 209" fill="none" xmlns="http://www.w3.org/2000/svg">
<rect x="39.0005" y="89.2803" width="138.561" height="104.91" fill="#D6E6ED"/>
<circle cx="52.8565" cy="194.19" r="13.856" fill="#D6E6ED"/>
<circle cx="80.5685" cy="194.19" r="13.856" fill="#D6E6ED"/>
<circle cx="108.281" cy="194.19" r="13.856" fill="#D6E6ED"/>
<circle cx="135.993" cy="194.19" r="13.856" fill="#D6E6ED"/>
<circle cx="163.705" cy="194.19" r="13.856" fill="#D6E6ED"/>
<circle cx="108.281" cy="89.2803" r="69.2803" fill="#D6E6ED"/>
<ellipse cx="76.6714" cy="99.6982" rx="6" ry="2.5" fill="#E5C8D6"/>
<ellipse cx="140" cy="99.5" rx="6" ry="2.5" fill="#E5C8D6"/>
<circle cx="87.4028" cy="87.3921" r="9.40232" fill="#50545D"/>
<circle cx="127.981" cy="86.4023" r="9.40232" fill="#50545D"/>
<path d="M74.4785 5.67383C74.3516 5.67383 74.2832 5.5957 74.2637 5.47852C73.9707 3.89648 74 3.81836 72.3008 3.51562C72.1738 3.48633 72.1055 3.41797 72.1055 3.29102C72.1055 3.17383 72.1738 3.0957 72.3008 3.07617C74 2.77344 73.9707 2.69531 74.2637 1.11328C74.2832 0.996094 74.3516 0.917969 74.4785 0.917969C74.6055 0.917969 74.6738 0.996094 74.6934 1.11328C74.9863 2.69531 74.957 2.77344 76.6562 3.07617C76.7734 3.0957 76.8516 3.17383 76.8516 3.29102C76.8516 3.41797 76.7734 3.48633 76.6562 3.51562C74.957 3.81836 74.9863 3.89648 74.6934 5.47852C74.6738 5.5957 74.6055 5.67383 74.4785 5.67383ZM69.752 12.3926C69.5762 12.3926 69.4492 12.2656 69.4199 12.0703C69.1074 9.46289 68.9805 9.39453 66.3242 8.96484C66.1191 8.93555 65.9922 8.82812 65.9922 8.63281C65.9922 8.45703 66.1191 8.33984 66.2852 8.31055C68.9609 7.80273 69.1074 7.8125 69.4199 5.20508C69.4492 5.00977 69.5762 4.88281 69.752 4.88281C69.9375 4.88281 70.0645 5.00977 70.084 5.19531C70.4258 7.8418 70.5234 7.92969 73.2188 8.31055C73.3848 8.33008 73.5117 8.45703 73.5117 8.63281C73.5117 8.81836 73.3848 8.93555 73.2188 8.96484C70.5234 9.48242 70.4355 9.48242 70.084 12.0898C70.0645 12.2656 69.9375 12.3926 69.752 12.3926ZM76.373 23.1934C76.1191 23.1934 75.9336 23.0078 75.8945 22.7441C75.1621 17.4023 74.4297 16.6895 69.1562 15.9961C68.873 15.9668 68.6875 15.7715 68.6875 15.5078C68.6875 15.2539 68.873 15.0586 69.1562 15.0293C74.4395 14.4434 75.2012 13.623 75.8945 8.27148C75.9336 8.00781 76.1191 7.83203 76.373 7.83203C76.627 7.83203 76.8125 8.00781 76.8613 8.27148C77.5547 13.623 78.3066 14.4434 83.5996 15.0293C83.873 15.0586 84.0586 15.2539 84.0586 15.5078C84.0586 15.7715 83.873 15.9668 83.5996 15.9961C78.3066 16.582 77.5547 17.4023 76.8613 22.7441C76.8125 23.0078 76.627 23.1934 76.373 23.1934Z" fill="#F2C266"/>
<path d="M52.2393 26.8369C52.1758 26.8369 52.1416 26.7979 52.1318 26.7393C51.9854 25.9482 52 25.9092 51.1504 25.7578C51.0869 25.7432 51.0527 25.709 51.0527 25.6455C51.0527 25.5869 51.0869 25.5479 51.1504 25.5381C52 25.3867 51.9854 25.3477 52.1318 24.5566C52.1416 24.498 52.1758 24.459 52.2393 24.459C52.3027 24.459 52.3369 24.498 52.3467 24.5566C52.4932 25.3477 52.4785 25.3867 53.3281 25.5381C53.3867 25.5479 53.4258 25.5869 53.4258 25.6455C53.4258 25.709 53.3867 25.7432 53.3281 25.7578C52.4785 25.9092 52.4932 25.9482 52.3467 26.7393C52.3369 26.7979 52.3027 26.8369 52.2393 26.8369ZM49.876 30.1963C49.7881 30.1963 49.7246 30.1328 49.71 30.0352C49.5537 28.7314 49.4902 28.6973 48.1621 28.4824C48.0596 28.4678 47.9961 28.4141 47.9961 28.3164C47.9961 28.2285 48.0596 28.1699 48.1426 28.1553C49.4805 27.9014 49.5537 27.9062 49.71 26.6025C49.7246 26.5049 49.7881 26.4414 49.876 26.4414C49.9688 26.4414 50.0322 26.5049 50.042 26.5977C50.2129 27.9209 50.2617 27.9648 51.6094 28.1553C51.6924 28.165 51.7559 28.2285 51.7559 28.3164C51.7559 28.4092 51.6924 28.4678 51.6094 28.4824C50.2617 28.7412 50.2178 28.7412 50.042 30.0449C50.0322 30.1328 49.9688 30.1963 49.876 30.1963ZM53.1865 35.5967C53.0596 35.5967 52.9668 35.5039 52.9473 35.3721C52.5811 32.7012 52.2148 32.3447 49.5781 31.998C49.4365 31.9834 49.3438 31.8857 49.3438 31.7539C49.3438 31.627 49.4365 31.5293 49.5781 31.5146C52.2197 31.2217 52.6006 30.8115 52.9473 28.1357C52.9668 28.0039 53.0596 27.916 53.1865 27.916C53.3135 27.916 53.4062 28.0039 53.4307 28.1357C53.7773 30.8115 54.1533 31.2217 56.7998 31.5146C56.9365 31.5293 57.0293 31.627 57.0293 31.7539C57.0293 31.8857 56.9365 31.9834 56.7998 31.998C54.1533 32.291 53.7773 32.7012 53.4307 35.3721C53.4062 35.5039 53.3135 35.5967 53.1865 35.5967Z" fill="#F2C266"/>
<path d="M115.684 103.866C116.236 103.866 116.689 104.315 116.631 104.864C116.419 106.848 115.582 108.709 114.241 110.135C112.676 111.797 110.554 112.731 108.342 112.731C106.13 112.731 104.008 111.797 102.443 110.135C101.102 108.709 100.264 106.848 100.053 104.864C99.9945 104.315 100.448 103.866 101 103.866L108.342 103.866H115.684Z" fill="#50545D"/>
<ellipse cx="89.0857" cy="85.1282" rx="2.0857" ry="2.0857" fill="white"/>
<ellipse cx="131.843" cy="84.0857" rx="2.0857" ry="2.0857" fill="white"/>
<path d="M151.472 150.912L166.664 128.3C173.291 118.436 160.251 107.307 151.552 115.402L135.006 130.798" stroke="#50545D"/>
<path d="M68.1963 149.986L51.886 128.167C44.7711 118.649 57.2352 106.878 66.3308 114.525L83.6297 129.07" stroke="#50545D"/>
</svg>
