<svg width="338" height="171" viewBox="0 0 338 171" fill="none" xmlns="http://www.w3.org/2000/svg">
<ellipse cx="292" cy="74" rx="309" ry="306" transform="rotate(90 292 74)" fill="white" fill-opacity="0.74"/>
<ellipse cx="292" cy="74" rx="309" ry="306" transform="rotate(90 292 74)" fill="white" fill-opacity="0.74"/>
<ellipse cx="292" cy="74" rx="309" ry="306" transform="rotate(90 292 74)" fill="#D9D9D9" fill-opacity="0.49"/>
<ellipse cx="292" cy="74" rx="309" ry="306" transform="rotate(90 292 74)" fill="#DBE8ED"/>
<ellipse cx="358" cy="74" rx="309" ry="306" transform="rotate(90 358 74)" fill="white" fill-opacity="0.74"/>
<ellipse cx="358" cy="74" rx="309" ry="306" transform="rotate(90 358 74)" fill="white" fill-opacity="0.74"/>
<ellipse cx="358" cy="74" rx="309" ry="306" transform="rotate(90 358 74)" fill="#D9D9D9" fill-opacity="0.49"/>
<ellipse cx="358" cy="74" rx="309" ry="306" transform="rotate(90 358 74)" fill="#B8D1DB"/>
<ellipse cx="418" cy="74" rx="309" ry="306" transform="rotate(90 418 74)" fill="white" fill-opacity="0.74"/>
<ellipse cx="418" cy="74" rx="309" ry="306" transform="rotate(90 418 74)" fill="white" fill-opacity="0.74"/>
<ellipse cx="418" cy="74" rx="309" ry="306" transform="rotate(90 418 74)" fill="#D9D9D9" fill-opacity="0.49"/>
<ellipse cx="418" cy="74" rx="309" ry="306" transform="rotate(90 418 74)" fill="#94BAC9"/>
<ellipse cx="478" cy="74" rx="309" ry="306" transform="rotate(90 478 74)" fill="white" fill-opacity="0.74"/>
<ellipse cx="478" cy="74" rx="309" ry="306" transform="rotate(90 478 74)" fill="white" fill-opacity="0.74"/>
<ellipse cx="478" cy="74" rx="309" ry="306" transform="rotate(90 478 74)" fill="#D9D9D9" fill-opacity="0.49"/>
<ellipse cx="478" cy="74" rx="309" ry="306" transform="rotate(90 478 74)" fill="#7B9BA7"/>
</svg>
