<svg width="140" height="190" viewBox="0 0 140 190" fill="none" xmlns="http://www.w3.org/2000/svg">
<rect y="70" width="140" height="106" fill="#D6E6ED"/>
<circle cx="70" cy="70" r="70" fill="#D6E6ED"/>
<circle cx="14" cy="176" r="14" fill="#D6E6ED"/>
<circle cx="42" cy="176" r="14" fill="#D6E6ED"/>
<circle cx="70" cy="176" r="14" fill="#D6E6ED"/>
<circle cx="98" cy="176" r="14" fill="#D6E6ED"/>
<circle cx="126" cy="176" r="14" fill="#D6E6ED"/>
<ellipse cx="41" cy="81.5" rx="6" ry="2.5" fill="#E5C8D6"/>
<path d="M110 81.5C110 82.8807 107.314 84 104 84C100.686 84 98 82.8807 98 81.5C98 80.1193 100.686 79 104 79C107.314 79 110 80.1193 110 81.5Z" fill="#E5C8D6"/>
<path d="M66.9244 91C67.8697 88.333 70.2812 86.5 73.0001 86.5C75.719 86.5 78.1305 88.333 79.0758 91H82.199C81.1519 86.7342 77.4877 83.5 73.0001 83.5C68.5125 83.5 64.8484 86.7342 63.8013 91H66.9244Z" fill="#50545D"/>
<path d="M61 69.5C61 72.0196 59.9991 74.4359 58.2175 76.2175C56.4359 77.9991 54.0196 79 51.5 79C48.9804 79 46.5641 77.9991 44.7825 76.2175C43.0009 74.4359 42 72.0196 42 69.5L44.5754 69.5C44.5755 71.3365 45.305 73.0978 46.6036 74.3964C47.9022 75.695 49.6635 76.4246 51.5 76.4246C53.3365 76.4245 55.0978 75.695 56.3964 74.3964C57.695 73.0978 58.4246 71.3365 58.4246 69.5H61Z" fill="#50545D"/>
<path d="M102 69.5C102 70.7476 101.754 71.9829 101.277 73.1355C100.799 74.2881 100.1 75.3354 99.2175 76.2175C98.3354 77.0997 97.2881 77.7994 96.1355 78.2769C94.9829 78.7543 93.7476 79 92.5 79C91.2524 79 90.0171 78.7543 88.8645 78.2769C87.7119 77.7994 86.6646 77.0997 85.7825 76.2175C84.9003 75.3354 84.2006 74.2881 83.7231 73.1355C83.2457 71.9829 83 70.7476 83 69.5L85.5754 69.5C85.5754 70.4093 85.7546 71.3098 86.1025 72.1499C86.4505 72.99 86.9606 73.7534 87.6036 74.3964C88.2466 75.0394 89.01 75.5495 89.8501 75.8974C90.6902 76.2454 91.5907 76.4246 92.5 76.4246C93.4093 76.4246 94.3098 76.2454 95.1499 75.8975C95.99 75.5495 96.7534 75.0394 97.3964 74.3964C98.0394 73.7534 98.5495 72.99 98.8975 72.1499C99.2454 71.3098 99.4246 70.4093 99.4246 69.5H102Z" fill="#50545D"/>
</svg>
