<svg width="94" height="94" viewBox="0 0 94 94" fill="none" xmlns="http://www.w3.org/2000/svg">
<circle cx="47" cy="47" r="47" fill="#D6E6ED"/>
<path d="M38.6689 51.8978C38.6689 55.0825 36.2391 57.6642 33.2417 57.6642C30.2443 57.6642 27.8145 55.0825 27.8145 51.8978C27.8145 48.7131 30.2443 46.1313 33.2417 46.1313C36.2391 46.1313 38.6689 48.7131 38.6689 51.8978Z" stroke="#50545D" stroke-width="3"/>
<rect x="25.7793" y="50.2017" width="14.9249" height="9.49766" fill="#D6E6ED"/>
<path d="M68.519 51.8978C68.519 55.0825 66.0892 57.6642 63.0918 57.6642C60.0944 57.6642 57.6646 55.0825 57.6646 51.8978C57.6646 48.7131 60.0944 46.1313 63.0918 46.1313C66.0892 46.1313 68.519 48.7131 68.519 51.8978Z" stroke="#50545D" stroke-width="3"/>
<rect x="55.6289" y="50.2017" width="14.9249" height="9.49766" fill="#D6E6ED"/>
<path d="M43.418 57.3254C43.418 54.1406 45.8479 51.5589 48.8452 51.5589C51.8426 51.5589 54.2725 54.1406 54.2725 57.3254C54.2725 60.5101 51.8426 63.0918 48.8452 63.0918C45.8479 63.0918 43.418 60.5101 43.418 57.3254Z" stroke="#50545D" stroke-width="3"/>
<rect x="56.3076" y="59.0215" width="14.9249" height="9.49766" transform="rotate(-180 56.3076 59.0215)" fill="#D6E6ED"/>
<ellipse cx="69.8337" cy="53.2372" rx="4.02856" ry="1.67857" fill="#E5C8D6"/>
<ellipse cx="25.7375" cy="53.2372" rx="4.02856" ry="1.67857" fill="#E5C8D6"/>
</svg>
