<svg width="39" height="46" viewBox="0 0 39 46" fill="none" xmlns="http://www.w3.org/2000/svg">
<path d="M21.0519 4C20.5815 4 20.2769 4.25549 20.0377 4.71114C19.9943 4.7938 20.0077 4.90712 20.0682 4.96797L20.3224 5.22351C20.3835 5.28495 20.4705 5.27059 20.5184 5.1911C20.666 4.94594 20.7754 4.80478 21.006 4.80478C21.1873 4.80478 21.4115 4.95946 21.4115 5.19252C21.4115 5.36871 21.3018 5.4592 21.1228 5.59224C20.9141 5.7474 20.6379 5.94049 20.6379 6.42353V6.5C20.6379 6.60355 20.7012 6.6875 20.7793 6.6875H21.2063C21.2844 6.6875 21.3477 6.60355 21.3477 6.5V6.4549C21.3477 6.12005 22.0859 6.10611 22.0859 5.2C22.0859 4.51763 21.552 4 21.0519 4ZM20.9928 6.91765C20.7677 6.91765 20.5846 7.16042 20.5846 7.45883C20.5846 7.75723 20.7677 8 20.9928 8C21.2179 8 21.401 7.75723 21.401 7.45882C21.401 7.16041 21.2179 6.91765 20.9928 6.91765Z" fill="#E5C8D6"/>
<path d="M37.7773 8.18729C37.4202 7.91102 37.0679 7.87758 36.6706 7.99657C36.5985 8.01815 36.555 8.09055 36.5721 8.16074L36.6441 8.45557C36.6614 8.52646 36.7342 8.56937 36.8082 8.55221C37.0364 8.4993 37.1864 8.48323 37.3614 8.61865C37.4991 8.72513 37.5961 8.94492 37.4857 9.07764C37.4022 9.17797 37.2761 9.16506 37.0772 9.13569C36.8452 9.10144 36.5441 9.04915 36.3153 9.32423L36.2791 9.36777C36.2301 9.42674 36.2384 9.51174 36.2977 9.55761L36.6219 9.80845C36.6812 9.85432 36.7691 9.84371 36.8181 9.78474L36.8395 9.75906C36.998 9.56838 37.5651 9.99401 37.9942 9.47801C38.3173 9.08943 38.1571 8.48108 37.7773 8.18729ZM36.3508 9.81409C36.1799 9.68189 35.9259 9.71258 35.7846 9.88252C35.6433 10.0524 35.6674 10.2982 35.8383 10.4304C36.0091 10.5627 36.2631 10.532 36.4045 10.362C36.5458 10.1921 36.5217 9.9463 36.3508 9.81409Z" fill="#E5C8D6"/>
<path d="M30.8617 0.61644C29.7543 0.337545 28.9231 0.577977 28.1566 1.1871C28.0176 1.2976 27.9985 1.4923 28.1139 1.62847L28.5983 2.20034C28.7148 2.33786 28.926 2.36575 29.0741 2.26312C29.531 1.9466 29.8518 1.77888 30.3946 1.9156C30.8214 2.02309 31.2803 2.41097 31.1763 2.79508C31.0977 3.08545 30.7991 3.16952 30.3183 3.28266C29.7576 3.4146 29.0211 3.56905 28.8056 4.36513L28.7715 4.49116C28.7253 4.66183 28.8369 4.83772 29.0208 4.88403L30.0262 5.13725C30.2101 5.18357 30.3966 5.08276 30.4428 4.9121L30.4629 4.83776C30.6123 4.28591 32.3565 4.70063 32.7608 3.20729C33.0652 2.08268 32.0393 0.913021 30.8617 0.61644ZM29.4208 5.38995C28.8909 5.25649 28.3514 5.54802 28.2183 6.03982C28.0851 6.5316 28.4079 7.04029 28.9378 7.17375C29.4678 7.30721 30.0072 7.01568 30.1403 6.52388C30.2735 6.03208 29.9507 5.52341 29.4208 5.38995Z" fill="#50545D"/>
<path d="M9.19484 5.65199C8.45997 6.49825 8.3299 7.3258 8.57311 8.25447C8.61723 8.42293 8.79157 8.52281 8.9685 8.48047L9.71164 8.30259C9.89033 8.25982 10.0068 8.08763 9.97391 7.9146C9.8726 7.38089 9.85256 7.02951 10.2128 6.61468C10.496 6.28852 11.0558 6.05426 11.3713 6.30916C11.6099 6.50186 11.561 6.7982 11.4614 7.26576C11.3454 7.81102 11.1752 8.51919 11.8292 9.04749L11.9327 9.13112C12.073 9.24438 12.2855 9.22227 12.4076 9.08174L13.0748 8.31339C13.1968 8.17286 13.1821 7.96713 13.0419 7.85387L12.9808 7.80455C12.5275 7.43833 13.6619 6.09497 12.4351 5.10395C11.5113 4.35763 9.97631 4.75208 9.19484 5.65199ZM13.0528 8.94928C12.7011 9.35423 12.7437 9.94922 13.1477 10.2756C13.5517 10.6019 14.1665 10.538 14.5182 10.133C14.8698 9.72809 14.8272 9.1331 14.4232 8.80674C14.0192 8.48037 13.4044 8.54432 13.0528 8.94928Z" fill="#50545D"/>
<ellipse cx="1.82755" cy="1.83329" rx="1.82755" ry="1.83329" transform="matrix(-1 0 0 1 11.7811 20.1812)" fill="#50545D"/>
<ellipse cx="1.15424" cy="1.15787" rx="1.15424" ry="1.15787" transform="matrix(-1 0 0 1 8.70325 23.6548)" fill="#E5C8D6"/>
<rect width="26.9323" height="20.4556" transform="matrix(-1 0 0 1 27.748 22.1106)" fill="#D6E6ED"/>
<ellipse cx="2.69323" cy="2.70169" rx="2.69323" ry="2.70169" transform="matrix(-1 0 0 1 27.748 39.8645)" fill="#D6E6ED"/>
<ellipse cx="2.69323" cy="2.70169" rx="2.69323" ry="2.70169" transform="matrix(-1 0 0 1 22.3627 39.8645)" fill="#D6E6ED"/>
<ellipse cx="2.69323" cy="2.70169" rx="2.69323" ry="2.70169" transform="matrix(-1 0 0 1 16.9756 39.8645)" fill="#D6E6ED"/>
<ellipse cx="2.69323" cy="2.70169" rx="2.69323" ry="2.70169" transform="matrix(-1 0 0 1 11.5886 39.8645)" fill="#D6E6ED"/>
<ellipse cx="2.69323" cy="2.70169" rx="2.69323" ry="2.70169" transform="matrix(-1 0 0 1 6.20148 39.8645)" fill="#D6E6ED"/>
<ellipse cx="13.4661" cy="13.5084" rx="13.4661" ry="13.5084" transform="matrix(-1 0 0 1 27.748 8.60217)" fill="#D6E6ED"/>
<ellipse cx="0.97186" cy="1.26739" rx="0.97186" ry="1.26739" transform="matrix(-1 0 0 1 15.308 24.2008)" fill="#50545D"/>
<ellipse cx="1.16623" cy="0.487456" rx="1.16623" ry="0.487456" transform="matrix(-1 0 0 1 21.5915 23.6548)" fill="#E5C8D6"/>
<ellipse cx="1.16623" cy="0.487456" rx="1.16623" ry="0.487456" transform="matrix(-1 0 0 1 9.28192 23.6158)" fill="#E5C8D6"/>
<ellipse cx="1.82755" cy="1.83329" rx="1.82755" ry="1.83329" transform="matrix(-1 0 0 1 20.1679 19.9092)" fill="#50545D"/>
<ellipse cx="1.82755" cy="1.83329" rx="1.82755" ry="1.83329" transform="matrix(-1 0 0 1 12.2799 19.7163)" fill="#50545D"/>
<ellipse cx="0.384747" cy="0.385955" rx="0.384747" ry="0.385955" transform="matrix(-1 0 0 1 18.0504 20.681)" fill="white"/>
<ellipse cx="0.384747" cy="0.385955" rx="0.384747" ry="0.385955" transform="matrix(-1 0 0 1 10.1641 20.4881)" fill="white"/>
</svg>
